<svg version="1.1" id="svg249" xml:space="preserve" width="24" height="24" viewBox="0 0 24 24" xmlns="http://www.w3.org/2000/svg" xmlns:svg="http://www.w3.org/2000/svg" xmlns:xlink="http://www.w3.org/1999/xlink" xmlns:svgjs="http://svgjs.dev/svgjs"><g transform="matrix(1,0,0,1,0,0)"><defs id="defs253"><clipPath clipPathUnits="userSpaceOnUse" id="clipPath263"><path d="M 0,24 H 24 V 0 H 0 Z" id="path261" fill="#cde9dfff" data-original-color="#000000ff" stroke="none"/></clipPath></defs><g id="g255" transform="matrix(1.3333333,0,0,-1.3333333,0,32)"><g id="g257"><g id="g259" clip-path="url(#clipPath263)"><g id="g265" transform="translate(23,1)"><path d="m 0,0 v 12.957 c 0,0.615 -0.283,1.196 -0.768,1.575 l -9,7.043 c -0.724,0.567 -1.74,0.567 -2.464,0 l -9,-7.043 C -21.717,14.153 -22,13.572 -22,12.957 V 0 Z" style="stroke-linecap: butt; stroke-linejoin: miter; stroke-miterlimit: 10; stroke-dasharray: none; stroke-opacity: 1;" id="path267" fill="none" stroke="#cde9dfff" data-original-stroke-color="#000000ff" stroke-width="2" data-original-stroke-width="2"/></g><g id="g269" transform="translate(14.8286,13.8218)"><path d="m 0,0 c -0.781,0.781 -1.805,1.172 -2.829,1.172 -1.023,0 -2.047,-0.391 -2.828,-1.172 -1.562,-1.562 -1.562,-4.095 0,-5.657 L -2.829,-8.423 0,-5.657 C 1.562,-4.095 1.562,-1.562 0,0 Z" style="stroke-linecap: butt; stroke-linejoin: miter; stroke-miterlimit: 10; stroke-dasharray: none; stroke-opacity: 1;" id="path271" fill="none" stroke="#cde9dfff" data-original-stroke-color="#000000ff" stroke-width="2" data-original-stroke-width="2"/></g><g id="g273" transform="translate(11,11)"><path d="M 0,0 C 0,0.552 0.448,1 1,1 1.552,1 2,0.552 2,0 2,-0.552 1.552,-1 1,-1 0.448,-1 0,-0.552 0,0" style="fill-opacity: 1; fill-rule: nonzero;" id="path275" fill="#cde9dfff" data-original-color="#000000ff" stroke="none"/></g></g></g></g></g></svg>
